<?xml version="1.0" encoding="UTF-8" standalone="no"?>
<!DOCTYPE svg PUBLIC "-//W3C//DTD SVG 1.1//EN"
 "http://www.w3.org/Graphics/SVG/1.1/DTD/svg11.dtd">
<!-- Generated by graphviz version 2.43.0 (0)
 -->
<!-- Title: %3 Pages: 1 -->
<svg width="208pt" height="131pt"
 viewBox="0.00 0.00 207.84 131.00" xmlns="http://www.w3.org/2000/svg" xmlns:xlink="http://www.w3.org/1999/xlink">
<g id="graph0" class="graph" transform="scale(1 1) rotate(0) translate(4 127)">
<title>%3</title>
<polygon fill="white" stroke="transparent" points="-4,4 -4,-127 203.84,-127 203.84,4 -4,4"/>
<!-- RR -->
<g id="node1" class="node">
<title>RR</title>
<ellipse fill="none" stroke="black" cx="96.84" cy="-105" rx="75.29" ry="18"/>
<text text-anchor="middle" x="96.84" y="-101.3" font-family="Monospace" font-size="14.00">RESP RawData</text>
</g>
<!-- MS -->
<g id="node2" class="node">
<title>MS</title>
<ellipse fill="none" stroke="black" cx="96.84" cy="-18" rx="96.68" ry="18"/>
<text text-anchor="middle" x="96.84" y="-14.3" font-family="Monospace" font-size="14.00">MiniScript value</text>
</g>
<!-- RR&#45;&gt;MS -->
<g id="edge1" class="edge">
<title>RR&#45;&gt;MS</title>
<path fill="none" stroke="green" d="M66.27,-88.29C59.29,-83.15 52.77,-76.72 48.84,-69 43.69,-58.86 48.88,-49.39 57.49,-41.48"/>
<polygon fill="green" stroke="green" points="59.72,-44.18 65.37,-35.22 55.36,-38.7 59.72,-44.18"/>
<text text-anchor="middle" x="86.34" y="-57.8" font-family="Monospace" font-size="14.00" fill="green"> load(r) </text>
</g>
<!-- MS&#45;&gt;RR -->
<g id="edge2" class="edge">
<title>MS&#45;&gt;RR</title>
<path fill="none" stroke="blue" d="M114.12,-35.94C121.58,-45.33 127.79,-57.42 123.84,-69 122.69,-72.37 121.07,-75.67 119.19,-78.81"/>
<polygon fill="blue" stroke="blue" points="116.2,-76.98 113.37,-87.18 121.95,-80.97 116.2,-76.98"/>
<text text-anchor="middle" x="162.34" y="-57.8" font-family="Monospace" font-size="14.00" fill="blue"> dump(v) </text>
</g>
</g>
</svg>
