<?xml version="1.0" encoding="UTF-8" standalone="no"?>
<!DOCTYPE svg PUBLIC "-//W3C//DTD SVG 1.1//EN"
 "http://www.w3.org/Graphics/SVG/1.1/DTD/svg11.dtd">
<!-- Generated by graphviz version 2.43.0 (0)
 -->
<!-- Title: %3 Pages: 1 -->
<svg width="202pt" height="131pt"
 viewBox="0.00 0.00 201.68 131.00" xmlns="http://www.w3.org/2000/svg" xmlns:xlink="http://www.w3.org/1999/xlink">
<g id="graph0" class="graph" transform="scale(1 1) rotate(0) translate(4 127)">
<title>%3</title>
<polygon fill="white" stroke="transparent" points="-4,4 -4,-127 197.68,-127 197.68,4 -4,4"/>
<!-- RR -->
<g id="node1" class="node">
<title>RR</title>
<ellipse fill="none" stroke="black" cx="96.84" cy="-105" rx="75.29" ry="18"/>
<text text-anchor="middle" x="96.84" y="-101.3" font-family="Monospace" font-size="14.00">RESP RawData</text>
</g>
<!-- MS -->
<g id="node2" class="node">
<title>MS</title>
<ellipse fill="none" stroke="black" cx="96.84" cy="-18" rx="96.68" ry="18"/>
<text text-anchor="middle" x="96.84" y="-14.3" font-family="Monospace" font-size="14.00">MiniScript value</text>
</g>
<!-- RR&#45;&gt;MS -->
<g id="edge1" class="edge">
<title>RR&#45;&gt;MS</title>
<path fill="none" stroke="green" d="M69.23,-88.2C62.65,-82.99 56.49,-76.56 52.84,-69 48.15,-59.27 52.74,-49.99 60.46,-42.12"/>
<polygon fill="green" stroke="green" points="63.02,-44.52 68.26,-35.31 58.42,-39.25 63.02,-44.52"/>
<text text-anchor="middle" x="86.34" y="-57.8" font-family="Monospace" font-size="14.00" fill="green"> load() </text>
</g>
<!-- MS&#45;&gt;RR -->
<g id="edge2" class="edge">
<title>MS&#45;&gt;RR</title>
<path fill="none" stroke="blue" d="M111.59,-36.12C117.95,-45.56 123.24,-57.65 119.84,-69 118.88,-72.2 117.53,-75.39 115.95,-78.45"/>
<polygon fill="blue" stroke="blue" points="112.84,-76.82 110.7,-87.2 118.85,-80.42 112.84,-76.82"/>
<text text-anchor="middle" x="154.34" y="-57.8" font-family="Monospace" font-size="14.00" fill="blue"> dump() </text>
</g>
</g>
</svg>
