<?xml version="1.0" encoding="UTF-8" standalone="no"?>
<!DOCTYPE svg PUBLIC "-//W3C//DTD SVG 1.1//EN"
 "http://www.w3.org/Graphics/SVG/1.1/DTD/svg11.dtd">
<!-- Generated by graphviz version 2.43.0 (0)
 -->
<!-- Title: %3 Pages: 1 -->
<svg width="183pt" height="263pt"
 viewBox="0.00 0.00 183.39 263.00" xmlns="http://www.w3.org/2000/svg" xmlns:xlink="http://www.w3.org/1999/xlink">
<g id="graph0" class="graph" transform="scale(1 1) rotate(0) translate(4 259)">
<title>%3</title>
<polygon fill="white" stroke="transparent" points="-4,4 -4,-259 179.39,-259 179.39,4 -4,4"/>
<!-- RR -->
<g id="node1" class="node">
<title>RR</title>
<ellipse fill="none" stroke="black" cx="75.39" cy="-237" rx="75.29" ry="18"/>
<text text-anchor="middle" x="75.39" y="-233.3" font-family="Monospace" font-size="14.00">RESP RawData</text>
</g>
<!-- L -->
<g id="node2" class="node">
<title>L</title>
<polygon fill="lightyellow" stroke="black" points="108.39,-123 42.39,-123 42.39,-87 108.39,-87 108.39,-123"/>
<text text-anchor="middle" x="75.39" y="-101.3" font-family="Monospace" font-size="14.00">Loader</text>
</g>
<!-- RR&#45;&gt;L -->
<g id="edge1" class="edge">
<title>RR&#45;&gt;L</title>
<path fill="none" stroke="olive" d="M75.39,-218.74C75.39,-196.98 75.39,-159.32 75.39,-133.56"/>
<polygon fill="olive" stroke="olive" points="78.89,-133.33 75.39,-123.33 71.89,-133.33 78.89,-133.33"/>
<text text-anchor="start" x="75.39" y="-189.8" font-family="Monospace" font-size="14.00" fill="olive">l.pushData()</text>
<text text-anchor="start" x="75.39" y="-174.8" font-family="Monospace" font-size="14.00" fill="olive">l.pushData()</text>
<text text-anchor="start" x="75.39" y="-159.8" font-family="Monospace" font-size="14.00" fill="olive">l.pushData()</text>
<text text-anchor="middle" x="125.39" y="-144.8" font-family="Monospace" font-size="14.00" fill="olive">...</text>
</g>
<!-- W -->
<g id="node3" class="node">
<title>W</title>
<polygon fill="khaki" stroke="black" points="112.39,-36 38.39,-36 38.39,0 112.39,0 112.39,-36"/>
<text text-anchor="middle" x="75.39" y="-14.3" font-family="Monospace" font-size="14.00">Wrapper</text>
</g>
<!-- L&#45;&gt;W -->
<g id="edge2" class="edge">
<title>L&#45;&gt;W</title>
<path fill="none" stroke="darkolivegreen" d="M75.39,-86.8C75.39,-75.16 75.39,-59.55 75.39,-46.24"/>
<polygon fill="darkolivegreen" stroke="darkolivegreen" points="78.89,-46.18 75.39,-36.18 71.89,-46.18 78.89,-46.18"/>
<text text-anchor="middle" x="116.89" y="-57.8" font-family="Monospace" font-size="14.00" fill="darkolivegreen">l.getWrp()</text>
</g>
</g>
</svg>
