<?xml version="1.0" encoding="UTF-8" standalone="no"?>
<!DOCTYPE svg PUBLIC "-//W3C//DTD SVG 1.1//EN"
 "http://www.w3.org/Graphics/SVG/1.1/DTD/svg11.dtd">
<!-- Generated by graphviz version 2.43.0 (0)
 -->
<!-- Title: %3 Pages: 1 -->
<svg width="291pt" height="218pt"
 viewBox="0.00 0.00 290.84 218.00" xmlns="http://www.w3.org/2000/svg" xmlns:xlink="http://www.w3.org/1999/xlink">
<g id="graph0" class="graph" transform="scale(1 1) rotate(0) translate(4 214)">
<title>%3</title>
<polygon fill="white" stroke="transparent" points="-4,4 -4,-214 286.84,-214 286.84,4 -4,4"/>
<!-- RR -->
<g id="node1" class="node">
<title>RR</title>
<ellipse fill="none" stroke="black" cx="96.84" cy="-192" rx="75.29" ry="18"/>
<text text-anchor="middle" x="96.84" y="-188.3" font-family="Monospace" font-size="14.00">RESP RawData</text>
</g>
<!-- W -->
<g id="node2" class="node">
<title>W</title>
<polygon fill="khaki" stroke="black" points="133.84,-123 59.84,-123 59.84,-87 133.84,-87 133.84,-123"/>
<text text-anchor="middle" x="96.84" y="-101.3" font-family="Monospace" font-size="14.00">Wrapper</text>
</g>
<!-- RR&#45;&gt;W -->
<g id="edge1" class="edge">
<title>RR&#45;&gt;W</title>
<path fill="none" stroke="seagreen" d="M47.12,-178.31C36.35,-173.18 26.28,-166 19.84,-156 8.78,-138.82 28.1,-126.31 50.15,-118.1"/>
<polygon fill="seagreen" stroke="seagreen" points="51.36,-121.39 59.69,-114.84 49.1,-114.76 51.36,-121.39"/>
<text text-anchor="middle" x="86.34" y="-144.8" font-family="Monospace" font-size="14.00" fill="seagreen"> Wrp.fromRESP() </text>
</g>
<!-- W&#45;&gt;RR -->
<g id="edge2" class="edge">
<title>W&#45;&gt;RR</title>
<path fill="none" stroke="blue" d="M133.88,-121.76C148.59,-130.48 160.42,-142.32 152.84,-156 149.89,-161.33 145.74,-165.96 141.03,-169.94"/>
<polygon fill="blue" stroke="blue" points="138.68,-167.33 132.68,-176.05 142.82,-172.98 138.68,-167.33"/>
<text text-anchor="middle" x="204.84" y="-144.8" font-family="Monospace" font-size="14.00" fill="blue"> w.toRESP() </text>
</g>
<!-- MS -->
<g id="node3" class="node">
<title>MS</title>
<ellipse fill="none" stroke="black" cx="96.84" cy="-18" rx="96.68" ry="18"/>
<text text-anchor="middle" x="96.84" y="-14.3" font-family="Monospace" font-size="14.00">MiniScript value</text>
</g>
<!-- W&#45;&gt;MS -->
<g id="edge3" class="edge">
<title>W&#45;&gt;MS</title>
<path fill="none" stroke="green" d="M59.68,-91.99C49.15,-86.68 38.91,-79.24 32.84,-69 25.89,-57.27 33.32,-47.27 45.26,-39.37"/>
<polygon fill="green" stroke="green" points="47.22,-42.27 54.12,-34.23 43.71,-36.22 47.22,-42.27"/>
<text text-anchor="middle" x="86.84" y="-57.8" font-family="Monospace" font-size="14.00" fill="green"> w.toValue() </text>
</g>
<!-- MS&#45;&gt;W -->
<g id="edge4" class="edge">
<title>MS&#45;&gt;W</title>
<path fill="none" stroke="blueviolet" d="M125.42,-35.31C137.26,-44.34 146.97,-56.29 140.84,-69 138.98,-72.86 136.47,-76.42 133.57,-79.68"/>
<polygon fill="blueviolet" stroke="blueviolet" points="131.05,-77.25 126.28,-86.71 135.91,-82.29 131.05,-77.25"/>
<text text-anchor="middle" x="212.34" y="-57.8" font-family="Monospace" font-size="14.00" fill="blueviolet"> Wrp.fromValue() </text>
</g>
</g>
</svg>
