<?xml version="1.0" encoding="UTF-8" standalone="no"?>
<!DOCTYPE svg PUBLIC "-//W3C//DTD SVG 1.1//EN"
 "http://www.w3.org/Graphics/SVG/1.1/DTD/svg11.dtd">
<!-- Generated by graphviz version 2.43.0 (0)
 -->
<!-- Title: %3 Pages: 1 -->
<svg width="290pt" height="218pt"
 viewBox="0.00 0.00 289.84 218.00" xmlns="http://www.w3.org/2000/svg" xmlns:xlink="http://www.w3.org/1999/xlink">
<g id="graph0" class="graph" transform="scale(1 1) rotate(0) translate(4 214)">
<title>%3</title>
<polygon fill="white" stroke="transparent" points="-4,4 -4,-214 285.84,-214 285.84,4 -4,4"/>
<!-- RR -->
<g id="node1" class="node">
<title>RR</title>
<ellipse fill="none" stroke="black" cx="96.84" cy="-192" rx="75.29" ry="18"/>
<text text-anchor="middle" x="96.84" y="-188.3" font-family="Monospace" font-size="14.00">RESP RawData</text>
</g>
<!-- W -->
<g id="node2" class="node">
<title>W</title>
<polygon fill="khaki" stroke="black" points="133.84,-123 59.84,-123 59.84,-87 133.84,-87 133.84,-123"/>
<text text-anchor="middle" x="96.84" y="-101.3" font-family="Monospace" font-size="14.00">Wrapper</text>
</g>
<!-- RR&#45;&gt;W -->
<g id="edge1" class="edge">
<title>RR&#45;&gt;W</title>
<path fill="none" stroke="seagreen" d="M44.59,-178.83C33.27,-173.68 22.66,-166.37 15.84,-156 3.82,-137.71 25.91,-124.97 50.04,-116.92"/>
<polygon fill="seagreen" stroke="seagreen" points="51.14,-120.24 59.68,-113.96 49.09,-113.55 51.14,-120.24"/>
<text text-anchor="middle" x="86.34" y="-144.8" font-family="Monospace" font-size="14.00" fill="seagreen"> Wrp.fromRESP(r) </text>
</g>
<!-- W&#45;&gt;RR -->
<g id="edge2" class="edge">
<title>W&#45;&gt;RR</title>
<path fill="none" stroke="blue" d="M134.13,-120.12C150.95,-128.84 165.35,-141.18 156.84,-156 153.61,-161.63 149.08,-166.44 143.95,-170.52"/>
<polygon fill="blue" stroke="blue" points="141.74,-167.8 135.49,-176.36 145.71,-173.56 141.74,-167.8"/>
<text text-anchor="middle" x="200.34" y="-144.8" font-family="Monospace" font-size="14.00" fill="blue"> w.toRESP </text>
</g>
<!-- MS -->
<g id="node3" class="node">
<title>MS</title>
<ellipse fill="none" stroke="black" cx="96.84" cy="-18" rx="96.68" ry="18"/>
<text text-anchor="middle" x="96.84" y="-14.3" font-family="Monospace" font-size="14.00">MiniScript value</text>
</g>
<!-- W&#45;&gt;MS -->
<g id="edge3" class="edge">
<title>W&#45;&gt;MS</title>
<path fill="none" stroke="green" d="M59.56,-88.11C52.07,-83.13 45.18,-76.82 40.84,-69 34.8,-58.1 41.09,-48.37 51.33,-40.45"/>
<polygon fill="green" stroke="green" points="53.45,-43.24 59.8,-34.76 49.55,-37.43 53.45,-43.24"/>
<text text-anchor="middle" x="86.34" y="-57.8" font-family="Monospace" font-size="14.00" fill="green"> w.toValue </text>
</g>
<!-- MS&#45;&gt;W -->
<g id="edge4" class="edge">
<title>MS&#45;&gt;W</title>
<path fill="none" stroke="blueviolet" d="M119.64,-35.94C129.07,-45.14 136.79,-57.06 131.84,-69 130.37,-72.54 128.35,-75.91 126.02,-79.07"/>
<polygon fill="blueviolet" stroke="blueviolet" points="123.17,-77.01 119.27,-86.86 128.46,-81.59 123.17,-77.01"/>
<text text-anchor="middle" x="207.34" y="-57.8" font-family="Monospace" font-size="14.00" fill="blueviolet"> Wrp.fromValue(v) </text>
</g>
</g>
</svg>
